# xmcd CD database file
#
# Track frame offsets:
#	150
#	20442
#	40759
#	54650
#	76065
#	90531
#	108538
#	127845
#	146427
#	169183
#
# Disc length: 2400 seconds
#
# Revision: 0
# Processed by: cddbd v1.5.2PL0 Copyright (c) Steve Scherf et al.
# Submitted via: CDex 1.75
#
DISCID=75095e0a
DTITLE=Clifton de Marks - Under This Star
DYEAR=2003
DGENRE=Jazz
TTITLE0=The First Noel
TTITLE1=Angels We Have Heard On High
TTITLE2=Away In A Manger
TTITLE3=Do You Hear What I Hear
TTITLE4=LIttle Drummer Boy
TTITLE5=Joy To The World
TTITLE6=Silent Night
TTITLE7=Under This Star
TTITLE8=What Child Is This
TTITLE9=White Christmas
EXTD=YEAR: 2003
EXTT0=
EXTT1=
EXTT2=
EXTT3=
EXTT4=
EXTT5=
EXTT6=
EXTT7=
EXTT8=
EXTT9=
PLAYORDER=
